Coordinates
version=1
nRows=27
nColumns=19
inDegrees=yes

Units are S.I. units (second, meters, Newtons, ...)
If the header above contains a line with 'inDegrees', this indicates whether rotational values are in degrees (yes) or radians (no).

endheader
time	pelvis_tilt	pelvis_list	pelvis_rotation	pelvis_tx	pelvis_ty	pelvis_tz	hip_flexion_r	hip_adduction_r	hip_rotation_r	knee_angle_r	knee_angle_r_beta	ankle_angle_r	hip_flexion_l	hip_adduction_l	hip_rotation_l	knee_angle_l	knee_angle_l_beta	ankle_angle_l
     14.64000000	      1.56726222	     -7.22923506	     -4.48894344	      2.27622257	      1.04469569	      1.02690535	     22.40599221	     10.55382513	     -2.76120859	     21.14388733	      0.36903045	      8.04039793	    -14.45644340	     -8.92107349	     -8.93416661	     44.92959951	      0.78416944	    -15.11121138
     14.64666667	      2.09997702	     -7.41243880	     -4.34150120	      2.27664231	      1.04116480	      1.02711572	     21.90971902	     10.50334456	     -3.61781046	     22.61253230	      0.39466314	      7.82129093	    -14.27487317	     -9.20853827	     -8.31518188	     47.10514977	      0.82213996	    -13.87020743
     14.65333333	      2.55428278	     -7.59013008	     -4.11176750	      2.27692246	      1.03725794	      1.02721409	     21.52511480	     10.42828991	     -4.46170883	     24.21465353	      0.42262543	      7.58402503	    -13.91502396	     -9.50994305	     -7.59280947	     49.31992242	      0.86079503	    -12.55868675
     14.66000000	      2.72567515	     -7.72348547	     -3.79407962	      2.27703840	      1.03273623	      1.02719289	     21.52550085	     10.27755515	     -5.39797303	     26.03134962	      0.45433276	      7.41127627	    -13.10944475	     -9.79287543	     -6.68504026	     51.63808428	      0.90125459	    -11.13670270
     14.66666667	      3.05030386	     -7.88239687	     -3.64367858	      2.27698732	      1.02815329	      1.02736835	     21.38644550	     10.24277156	     -6.00386758	     28.00501309	      0.48877969	      7.45931507	    -12.50478070	    -10.08811619	     -6.09973526	     53.86263317	      0.94008029	     -9.77228549
     14.67333333	      3.75701207	     -8.16137257	     -3.65448021	      2.27684889	      1.02388035	      1.02771520	     20.81348266	     10.43170403	     -6.25595414	     30.04484499	      0.52438147	      7.73405123	    -12.41421818	    -10.49348753	     -5.91006360	     55.90145450	      0.97566444	     -8.48799143
     14.68000000	      3.66376365	     -8.32813288	     -3.40521325	      2.27643129	      1.01849947	      1.02774723	     21.24941285	     10.41845483	     -6.83172717	     32.32766223	      0.56422415	      8.29328970	    -11.12738705	    -10.88494509	     -5.19100914	     58.24206197	      1.01651574	     -7.15142816
     14.68666667	      4.36507986	     -8.69305380	     -3.43353279	      2.27600519	      1.01402483	      1.02809908	     20.73957375	     10.76677902	     -6.88827286	     34.57975391	      0.60353056	      9.20192773	    -10.93458153	    -11.45855982	     -5.15552629	     60.23164527	      1.05124052	     -6.01325497
     14.69333333	      4.09660555	     -8.87595432	     -3.39843831	      2.27523731	      1.00834572	      1.02836583	     21.39412846	     10.93964029	     -6.98933307	     37.01126301	      0.64596840	     10.30973280	     -9.38029917	    -11.94766955	     -4.79089717	     62.52993027	      1.09135316	     -4.75248528
     14.70000000	      4.70427619	     -9.27033475	     -3.43156837	      2.27447845	      1.00384046	      1.02865212	     20.93689121	     11.38661034	     -6.86935780	     39.23211191	      0.68472953	     11.73272253	     -8.94730202	    -12.64447789	     -4.84459344	     64.47881643	      1.12536764	     -3.66098373
     14.70666667	      4.41930523	     -9.60138759	     -3.58503272	      2.27351458	      0.99835326	      1.02909144	     21.47243977	     11.86511134	     -6.61871872	     41.49848312	      0.72428517	     13.22353530	     -7.35304012	    -13.36316996	     -4.79179503	     66.63601317	      1.16301783	     -2.53830200
     14.71333333	      4.99860407	     -9.94733529	     -3.63121575	      2.27247940	      0.99423146	      1.02930959	     20.89315440	     12.31152577	     -6.33805112	     43.49095323	      0.75906033	     14.94717367	     -6.75815343	    -14.04772505	     -4.84498882	     68.45517285	      1.19476816	     -1.55770871
     14.72000000	      4.52700087	    -10.24806776	     -3.90327936	      2.27121372	      0.98905811	      1.02980017	     21.41209510	     12.85826956	     -5.85362392	     45.40478818	      0.79246305	     16.55600575	     -4.84467628	    -14.76714896	     -4.82493494	     70.48697443	      1.23022978	     -0.46563212
     14.72666667	      4.53967043	    -10.52768810	     -4.07799786	      2.26985012	      0.98491577	      1.03007713	     21.22345440	     13.32000253	     -5.41034458	     47.01839683	      0.82062583	     18.21943819	     -3.44498421	    -15.43176471	     -4.80422121	     72.26979771	      1.26134592	      0.50442063
     14.73333333	      4.67502562	    -10.82233815	     -4.24326512	      2.26841134	      0.98132845	      1.03028271	     20.72421948	     13.79861224	     -4.91649517	     48.32721891	      0.84346909	     19.79880706	     -2.15023368	    -16.07964299	     -4.74492520	     73.91057351	      1.28998286	      1.51731629
     14.74000000	      4.47988549	    -10.92180765	     -4.39387589	      2.26679776	      0.97782694	      1.03045890	     20.49511071	     14.04736791	     -4.47748108	     49.47023128	      0.86341842	     21.28289188	     -0.34112210	    -16.50324555	     -4.50081120	     75.49284401	      1.31759869	      2.38884420
     14.74666667	      4.74490928	    -11.02132926	     -4.51066508	      2.26527916	      0.97547792	      1.03054303	     19.52547264	     14.24389968	     -4.01764020	     50.22134021	      0.87652774	     22.69897665	      0.90155700	    -16.84818669	     -4.31055803	     76.76564771	      1.33981330	      3.30621989
     14.75333333	      4.42667697	    -11.02463315	     -4.51237955	      2.26345046	      0.97281098	      1.03044073	     19.17758905	     14.32779505	     -3.69160625	     50.86373848	      0.88773971	     23.85263721	      3.03363186	    -17.06416839	     -3.74127787	     78.08349681	      1.36281411	      4.12031433
     14.76000000	      4.76139315	    -10.94554927	     -4.59761657	      2.26166935	      0.97154572	      1.03042912	     17.91064196	     14.32531773	     -3.12567231	     51.20246747	      0.89365164	     24.87415156	      4.29127801	    -17.09343226	     -3.43521275	     79.00850971	      1.37895863	      4.83919919
     14.76666667	      4.91227661	    -10.80468124	     -4.60838187	      2.26006358	      0.97066591	      1.03040315	     16.69723566	     14.20022164	     -2.73332968	     51.25826903	      0.89462556	     25.90149966	      5.77549308	    -17.02352100	     -3.00904483	     79.73241484	      1.39159316	      5.69307766
     14.77333333	      4.62378740	    -10.58207458	     -4.15949246	      2.25842206	      0.96962267	      1.02974100	     15.97754209	     13.78667078	     -3.01879976	     51.17715375	      0.89320983	     26.66926325	      8.05373225	    -16.71515232	     -1.88000322	     80.44921525	      1.40410369	      6.46773151
     14.78000000	      4.70540744	    -10.29112408	     -3.96774878	      2.25691704	      0.96966038	      1.02948164	     14.68190021	     13.40764392	     -2.88719393	     50.87452478	      0.88792796	     27.35860386	      9.66635248	    -16.32260495	     -1.22420242	     80.77664412	      1.40981840	      7.18273741
     14.78666667	      4.82650680	     -9.95396514	     -3.73440207	      2.25549360	      0.97019754	      1.02923264	     13.25887402	     12.96838872	     -2.80098353	     50.39734178	      0.87959955	     27.90528025	     11.18959824	    -15.82215307	     -0.56600617	     80.87490190	      1.41153332	      7.88987249
     14.79333333	      4.94468062	     -9.57919933	     -3.50005898	      2.25421109	      0.97121584	      1.02902457	     11.75779379	     12.49183236	     -2.72271535	     49.75929836	      0.86846359	     28.34030057	     12.63561146	    -15.25440518	      0.02624334	     80.73538287	      1.40909825	      8.57570596
     14.80000000	      5.10217505	     -9.17444486	     -3.26252741	      2.25310491	      0.97276949	      1.02887286	     10.12451682	     11.98409184	     -2.65226246	     48.94481463	      0.85424817	     28.60752608	     13.94036595	    -14.62896995	      0.54700128	     80.34844928	      1.40234499	      9.21087959
     14.80666667	      5.29729148	     -8.74112929	     -3.07500056	      2.25218201	      0.97480785	      1.02884244	      8.37212396	     11.46844233	     -2.51186687	     47.98255440	      0.83745356	     28.73147019	     15.07879660	    -13.98420812	      0.91785181	     79.71599670	      1.39130661	      9.82448077
     14.81333333	      5.17935806	     -8.28870268	     -3.05661540	      2.25135923	      0.97683573	      1.02907290	      6.93460978	     11.01509791	     -2.14489351	     46.97658984	      0.81989616	     28.75830652	     16.44885046	    -13.37638471	      1.10433317	     78.91423699	      1.37731326	     10.45296225
